<?xml version="1.0" encoding="utf-8"?>
<!-- Generator: Adobe Illustrator 24.0.2, SVG Export Plug-In . SVG Version: 6.00 Build 0)  -->
<svg version="1.1" id="Layer_1" xmlns="http://www.w3.org/2000/svg" xmlns:xlink="http://www.w3.org/1999/xlink" x="0px" y="0px"
	 viewBox="0 0 229.6196 271.2519" enable-background="new 0 0 229.6196 271.2519" xml:space="preserve">
<g>
	<path d="M111.9141,30.1701c-1.0997-0.5851-2.4446-0.6804-3.6621-0.1211c-2.0737,0.9525-2.9825,3.4058-2.0299,5.4794l1.0681,2.3252
		l1.5883-3.7017C109.5617,32.5589,110.6174,31.207,111.9141,30.1701z"/>
	<path d="M181.5867,141.7107c-3.0527-0.0005-5.7031-2.1753-6.3027-5.1719c-0.6768-3.3818,1.4189-6.6797,4.7715-7.5073
		l24.8885-6.1053l1.9815-14.5605l3.9927,6.0371l5.3638,8.1102l-35.6748,8.7515c-2.1338,0.5269-3.5029,2.6479-3.0674,4.8237
		c0.4473,2.2378,2.624,3.689,4.8623,3.2412l43.1982-8.6426c0.5098-0.104,1.0332-0.2935,1.5098-0.5674
		c2.3936-1.3755,3.2197-4.4312,1.8438-6.8257l-0.1338-0.2339l-8.1471-14.1815l-6.4291-11.191
		c-0.9688-1.6748-2.7725-2.8203-4.8477-2.8462l-0.1836-0.0024l-19.0654-0.2402c-0.8907-0.0114-1.7357,0.1774-2.5001,0.516
		c-0.8301-0.4041-1.7636-0.6265-2.7501-0.605l-18.599,0.4043l-29.3843-16.7722l-13.2213-26.2738l-4.8123,11.2162l9.6057,20.9109
		c0.3686,0.8062,0.9639,1.5156,1.7665,2.0282l0.1846,0.1179l31.2308,19.9427c0.6449,0.4132,1.381,0.6893,2.1688,0.8042
		l-5.8552,44.0078c-0.0854,0.3528-0.1558,0.7123-0.2036,1.0806L143.0289,265.788c-0.2701,2.1428,1.1157,4.2059,3.2653,4.7067
		c2.2964,0.535,4.5917-0.8929,5.1266-3.1893l20.9243-89.8201l11.1445,1.4829l8.5688,88.4262
		c0.2158,2.1489,2.0277,3.85,4.2349,3.8575c2.3579,0.0079,4.2759-1.897,4.2839-4.2549l0.3903-114.7626
		c0-0.0215-0.0029-0.0443-0.0031-0.0659l1.9875-14.6049l-20.0988,4.0211C182.4364,141.6682,182.0096,141.7107,181.5867,141.7107z"/>
	<path d="M180.3081,87.5866c7.2083,3.1031,29.074-9.8669,34.0537-21.4348c4.9799-11.5679-0.3597-24.9812-11.9284-29.9614
		c-11.567-4.9794-24.9816,0.3605-29.9614,11.9284C167.4923,59.6867,173.0998,84.4835,180.3081,87.5866z M198.273,63.521
		c3.9367-1.5087,7.9565-0.5699,8.9785,2.0967c1.022,2.6667-1.3409,6.0516-5.2775,7.5602
		c-3.9367,1.5087-11.1319-1.6354-11.1319-1.6354S194.3363,65.0297,198.273,63.521z M177.7471,52.9166
		c2.6394-1.0906,6.0841,1.1841,7.694,5.0805c1.6099,3.8964-0.7192,10.9109-0.7192,10.9109s-7.2291-3.0654-8.839-6.9618
		C174.2731,58.0498,175.1077,54.0071,177.7471,52.9166z"/>
	<ellipse transform="matrix(0.8475 -0.5308 0.5308 0.8475 -25.0152 28.5565)" cx="37.1912" cy="57.8138" rx="22.5" ry="22.4999"/>
	<path d="M125.6949,41.3676c1.7422-4.0605-0.1367-8.7637-4.1973-10.5059c-4.0596-1.7422-8.7637,0.1367-10.5059,4.1973
		L94.2465,74.0877l-0.2186,0.5094l-34.6265,9.4883c-0.1211,0.0056-0.2407,0.0039-0.3628,0.0154l-38.4678,3.5811
		c-0.0633,0.006-0.1238,0.0195-0.1866,0.027c-0.1043,0.0057-0.2074,0.0037-0.3123,0.0135
		C9.9845,88.6618,5.7711,101.1891,3.2277,111.9977c-2.1611,9.1836-3.1406,18.1074-3.1812,18.4824
		c-0.231,2.1328,0.4043,4.2686,1.7627,5.9287c1.3589,1.6592,3.3267,2.7041,5.4629,2.8994l8.1021,0.7405l-2.0698-22.2345
		l2.2971-0.1317l3.4063,36.593l-8.3433,102.301c-0.5547,6.8071,4.5137,12.7725,11.3184,13.3271
		c6.8047,0.5542,12.7734-4.5098,13.3281-11.3174l7.2373-88.7383l8.1948-0.7629l15.2476,89.9339
		c1.1411,6.7341,7.5249,11.2632,14.2563,10.1226c6.7314-1.1409,11.2651-7.522,10.124-14.2559L73.358,154.5372l-3.7193-39.9546
		l-1.517-16.2966l33.8525-9.2769c2.3496-0.6436,4.2773-2.3232,5.2373-4.5615l0.2183-0.5088L125.6949,41.3676z"/>
	<path d="M90.2785,15.5211c-0.3799,0.4961-0.4126,1.1758-0.082,1.7061l5.144,8.251l-12.9966,1.0146
		c-0.6494,0.0508-1.1924,0.5146-1.3428,1.1484c-0.1504,0.6348,0.1255,1.293,0.6831,1.6299l11.9194,7.208
		c0.2427,0.1475,0.5107,0.2168,0.7749,0.2168c0.5078,0,1.0029-0.2578,1.2852-0.7236c0.4287-0.709,0.2012-1.6309-0.5073-2.0596
		l-7.9248-4.792l10.8057-0.8438c0.5225-0.04,0.9858-0.3506,1.2222-0.8184s0.2114-1.0254-0.0659-1.4707l-4.3413-6.9639l9.3242,2.8223
		c0.4849,0.1455,1.0137,0.0391,1.4028-0.29c0.3882-0.3281,0.584-0.8301,0.52-1.335l-1.6304-12.835l8.5981,9.0752
		c0.3379,0.3574,0.8301,0.5244,1.314,0.4521c0.4854-0.0742,0.9038-0.3809,1.1206-0.8213l5.0337-10.2275l2.9707,12.1436
		c0.1211,0.4951,0.4858,0.8955,0.9683,1.0615c0.4819,0.167,1.0161,0.0762,1.4165-0.2393l8.3965-6.6104l-3.3672,13.4473
		c-0.1123,0.4482-0.0117,0.9229,0.2729,1.2871c0.2842,0.3643,0.7202,0.5771,1.1821,0.5771h0.0005l7.9072-0.0029l-5.5469,5.4238
		c-0.5923,0.5791-0.603,1.5283-0.0234,2.1211c0.5786,0.5928,1.5283,0.6025,2.1211,0.0234l8.1792-7.998
		c0.436-0.4258,0.5703-1.0742,0.3398-1.6387c-0.23-0.5645-0.7788-0.9336-1.3887-0.9336h-0.0005l-9.666,0.0039l3.9663-15.8398
		c0.1558-0.6221-0.1016-1.2744-0.6396-1.623c-0.5386-0.3486-1.2393-0.3164-1.7432,0.0801l-10.0146,7.8838l-3.3975-13.8887
		c-0.1499-0.6123-0.667-1.0664-1.2944-1.1348c-0.623-0.0664-1.23,0.2637-1.5083,0.8291l-5.9043,11.9961l-10.27-10.8408
		c-0.4463-0.4717-1.144-0.6025-1.731-0.3242c-0.5864,0.2773-0.9277,0.9004-0.8462,1.5449l1.917,15.0918L91.904,14.9977
		C91.3068,14.8131,90.6588,15.025,90.2785,15.5211z"/>
</g>
</svg>
