<?xml version="1.0" encoding="iso-8859-1"?>
<!-- Generator: Adobe Illustrator 19.0.0, SVG Export Plug-In . SVG Version: 6.00 Build 0)  -->
<svg version="1.1" id="Capa_1" xmlns="http://www.w3.org/2000/svg" xmlns:xlink="http://www.w3.org/1999/xlink" x="0px" y="0px"
	 viewBox="0 0 512 512" style="enable-background:new 0 0 512 512;" xml:space="preserve">
<g>
	<g>
		<path d="M120,96C53.832,96,0,149.832,0,216c0,4.424,3.576,8,8,8s8-3.576,8-8c0-57.344,46.656-104,104-104s104,46.656,104,104
			c0,4.424,3.576,8,8,8s8-3.576,8-8C240,149.832,186.168,96,120,96z"/>
	</g>
</g>
<g>
	<g>
		<path d="M8,208c-4.424,0-8,3.576-8,8v280c0,4.424,3.576,8,8,8s8-3.576,8-8V216C16,211.576,12.424,208,8,208z"/>
	</g>
</g>
<g>
	<g>
		<path d="M232,208c-4.424,0-8,3.576-8,8v280c0,4.424,3.576,8,8,8s8-3.576,8-8V216C240,211.576,236.424,208,232,208z"/>
	</g>
</g>
<g>
	<g>
		<path d="M232,456H8c-4.424,0-8,3.576-8,8s3.576,8,8,8h224c4.424,0,8-3.576,8-8S236.424,456,232,456z"/>
	</g>
</g>
<g>
	<g>
		<path d="M232,488H8c-4.424,0-8,3.576-8,8s3.576,8,8,8h224c4.424,0,8-3.576,8-8S236.424,488,232,488z"/>
	</g>
</g>
<g>
	<g>
		<path d="M120,160c-17.656,0-32.016,14.36-32.016,32.016c0,4.424,3.576,8,8,8s8-3.576,8-8c0-8.832,7.184-16.016,16.016-16.016
			c8.832,0,16.016,7.184,16.016,16.016c0,4.424,3.576,8,8,8c4.424,0,8-3.576,8-8C152.016,174.36,137.656,160,120,160z"/>
	</g>
</g>
<g>
	<g>
		<path d="M144,192.008c-4.424,0-8,3.576-8,8c0,8.824-7.176,16-16,16c-8.824,0-16-7.176-16-16c0-4.424-3.576-8-8-8s-8,3.576-8,8
			c0,17.648,14.352,32,32,32s32-14.352,32-32C152,195.584,148.424,192.008,144,192.008z"/>
	</g>
</g>
<g>
	<g>
		<path d="M95.984,184.016c-4.424,0-8,3.576-8,8v7.992c0,4.424,3.576,8,8,8s8-3.576,8-8v-7.992
			C103.984,187.592,100.408,184.016,95.984,184.016z"/>
	</g>
</g>
<g>
	<g>
		<path d="M144,184.016c-4.424,0-8,3.576-8,8v7.992c0,4.424,3.576,8,8,8s8-3.576,8-8v-7.992
			C152,187.592,148.424,184.016,144,184.016z"/>
	</g>
</g>
<g>
	<g>
		<path d="M104,209.856c-4.424,0-8,3.576-8,8V240c0,4.424,3.576,8,8,8s8-3.576,8-8v-22.144C112,213.432,108.424,209.856,104,209.856
			z"/>
	</g>
</g>
<g>
	<g>
		<path d="M136,209.872c-4.424,0-8,3.576-8,8V240c0,4.424,3.576,8,8,8s8-3.576,8-8v-22.128C144,213.448,140.424,209.872,136,209.872
			z"/>
	</g>
</g>
<g>
	<g>
		<path d="M160,232c-4.424,0-8,3.576-8,8s3.576,8,8,8c4.416,0,8,3.584,8,8c0,4.424,3.576,8,8,8s8-3.576,8-8
			C184,242.768,173.232,232,160,232z"/>
	</g>
</g>
<g>
	<g>
		<path d="M160,232h-24c-4.424,0-8,3.576-8,8s3.576,8,8,8h24c4.424,0,8-3.576,8-8S164.424,232,160,232z"/>
	</g>
</g>
<g>
	<g>
		<path d="M176,248c-4.424,0-8,3.576-8,8v56c0,4.424,3.576,8,8,8s8-3.576,8-8v-56C184,251.576,180.424,248,176,248z"/>
	</g>
</g>
<g>
	<g>
		<path d="M80,232c-13.232,0-24,10.768-24,24c0,4.424,3.576,8,8,8s8-3.576,8-8c0-4.416,3.584-8,8-8c4.424,0,8-3.576,8-8
			S84.424,232,80,232z"/>
	</g>
</g>
<g>
	<g>
		<path d="M104,232H80c-4.424,0-8,3.576-8,8s3.576,8,8,8h24c4.424,0,8-3.576,8-8S108.424,232,104,232z"/>
	</g>
</g>
<g>
	<g>
		<path d="M64,248c-4.424,0-8,3.576-8,8v56c0,4.424,3.576,8,8,8s8-3.576,8-8v-56C72,251.576,68.424,248,64,248z"/>
	</g>
</g>
<g>
	<g>
		<path d="M88,272c-4.424,0-8,3.576-8,8v144c0,4.424,3.576,8,8,8s8-3.576,8-8V280C96,275.576,92.424,272,88,272z"/>
	</g>
</g>
<g>
	<g>
		<path d="M152,272c-4.424,0-8,3.576-8,8v144c0,4.424,3.576,8,8,8s8-3.576,8-8V280C160,275.576,156.424,272,152,272z"/>
	</g>
</g>
<g>
	<g>
		<path d="M120,344c-4.424,0-8,3.576-8,8v72c0,4.424,3.576,8,8,8s8-3.576,8-8v-72C128,347.576,124.424,344,120,344z"/>
	</g>
</g>
<g>
	<g>
		<path d="M88,328c-8.824,0-16-7.176-16-16c0-4.424-3.576-8-8-8s-8,3.576-8,8c0,17.648,14.352,32,32,32c4.424,0,8-3.576,8-8
			S92.424,328,88,328z"/>
	</g>
</g>
<g>
	<g>
		<path d="M176,304c-4.424,0-8,3.576-8,8c0,8.824-7.176,16-16,16c-4.424,0-8,3.576-8,8s3.576,8,8,8c17.648,0,32-14.352,32-32
			C184,307.576,180.424,304,176,304z"/>
	</g>
</g>
<g>
	<g>
		<path d="M152,416H88c-4.424,0-8,3.576-8,8s3.576,8,8,8h64c4.424,0,8-3.576,8-8S156.424,416,152,416z"/>
	</g>
</g>
<g>
	<g>
		<path d="M40,456c-4.424,0-8,3.576-8,8v8c0,4.424,3.576,8,8,8s8-3.576,8-8v-8C48,459.576,44.424,456,40,456z"/>
	</g>
</g>
<g>
	<g>
		<path d="M72,456c-4.424,0-8,3.576-8,8v8c0,4.424,3.576,8,8,8s8-3.576,8-8v-8C80,459.576,76.424,456,72,456z"/>
	</g>
</g>
<g>
	<g>
		<path d="M104,456c-4.424,0-8,3.576-8,8v8c0,4.424,3.576,8,8,8s8-3.576,8-8v-8C112,459.576,108.424,456,104,456z"/>
	</g>
</g>
<g>
	<g>
		<path d="M136,456c-4.424,0-8,3.576-8,8v8c0,4.424,3.576,8,8,8s8-3.576,8-8v-8C144,459.576,140.424,456,136,456z"/>
	</g>
</g>
<g>
	<g>
		<path d="M168,456c-4.424,0-8,3.576-8,8v8c0,4.424,3.576,8,8,8s8-3.576,8-8v-8C176,459.576,172.424,456,168,456z"/>
	</g>
</g>
<g>
	<g>
		<path d="M200,456c-4.424,0-8,3.576-8,8v8c0,4.424,3.576,8,8,8s8-3.576,8-8v-8C208,459.576,204.424,456,200,456z"/>
	</g>
</g>
<g>
	<g>
		<path d="M392,96c-66.168,0-120,53.832-120,120c0,4.424,3.576,8,8,8s8-3.576,8-8c0-57.344,46.656-104,104-104s104,46.656,104,104
			c0,4.424,3.576,8,8,8s8-3.576,8-8C512,149.832,458.168,96,392,96z"/>
	</g>
</g>
<g>
	<g>
		<path d="M280,208c-4.424,0-8,3.576-8,8v280c0,4.424,3.576,8,8,8s8-3.576,8-8V216C288,211.576,284.424,208,280,208z"/>
	</g>
</g>
<g>
	<g>
		<path d="M504,208c-4.424,0-8,3.576-8,8v280c0,4.424,3.576,8,8,8s8-3.576,8-8V216C512,211.576,508.424,208,504,208z"/>
	</g>
</g>
<g>
	<g>
		<path d="M504,456H280c-4.424,0-8,3.576-8,8s3.576,8,8,8h224c4.424,0,8-3.576,8-8S508.424,456,504,456z"/>
	</g>
</g>
<g>
	<g>
		<path d="M504,488H280c-4.424,0-8,3.576-8,8s3.576,8,8,8h224c4.424,0,8-3.576,8-8S508.424,488,504,488z"/>
	</g>
</g>
<g>
	<g>
		<path d="M392,160c-17.656,0-32.016,14.36-32.016,32.016c0,4.424,3.576,8,8,8s8-3.576,8-8c0-8.832,7.184-16.016,16.016-16.016
			c8.832,0,16.016,7.184,16.016,16.016c0,4.424,3.576,8,8,8s8-3.576,8-8C424.016,174.36,409.656,160,392,160z"/>
	</g>
</g>
<g>
	<g>
		<path d="M416,192.008c-4.424,0-8,3.576-8,8c0,8.824-7.176,16-16,16c-8.824,0-16-7.176-16-16c0-4.424-3.576-8-8-8s-8,3.576-8,8
			c0,17.648,14.352,32,32,32s32-14.352,32-32C424,195.584,420.424,192.008,416,192.008z"/>
	</g>
</g>
<g>
	<g>
		<path d="M367.984,184.016c-4.424,0-8,3.576-8,8v7.992c0,4.424,3.576,8,8,8s8-3.576,8-8v-7.992
			C375.984,187.592,372.408,184.016,367.984,184.016z"/>
	</g>
</g>
<g>
	<g>
		<path d="M416,184.016c-4.424,0-8,3.576-8,8v7.992c0,4.424,3.576,8,8,8s8-3.576,8-8v-7.992
			C424,187.592,420.424,184.016,416,184.016z"/>
	</g>
</g>
<g>
	<g>
		<path d="M376,209.856c-4.424,0-8,3.576-8,8V240c0,4.424,3.576,8,8,8s8-3.576,8-8v-22.144C384,213.432,380.424,209.856,376,209.856
			z"/>
	</g>
</g>
<g>
	<g>
		<path d="M408,209.872c-4.424,0-8,3.576-8,8V240c0,4.424,3.576,8,8,8s8-3.576,8-8v-22.128C416,213.448,412.424,209.872,408,209.872
			z"/>
	</g>
</g>
<g>
	<g>
		<path d="M432,232c-4.424,0-8,3.576-8,8s3.576,8,8,8c4.416,0,8,3.584,8,8c0,4.424,3.576,8,8,8s8-3.576,8-8
			C456,242.768,445.232,232,432,232z"/>
	</g>
</g>
<g>
	<g>
		<path d="M432,232h-24c-4.424,0-8,3.576-8,8s3.576,8,8,8h24c4.424,0,8-3.576,8-8S436.424,232,432,232z"/>
	</g>
</g>
<g>
	<g>
		<path d="M448,248c-4.424,0-8,3.576-8,8v56c0,4.424,3.576,8,8,8s8-3.576,8-8v-56C456,251.576,452.424,248,448,248z"/>
	</g>
</g>
<g>
	<g>
		<path d="M352,232c-13.232,0-24,10.768-24,24c0,4.424,3.576,8,8,8s8-3.576,8-8c0-4.416,3.584-8,8-8c4.424,0,8-3.576,8-8
			S356.424,232,352,232z"/>
	</g>
</g>
<g>
	<g>
		<path d="M376,232h-24c-4.424,0-8,3.576-8,8s3.576,8,8,8h24c4.424,0,8-3.576,8-8S380.424,232,376,232z"/>
	</g>
</g>
<g>
	<g>
		<path d="M336,248c-4.424,0-8,3.576-8,8v56c0,4.424,3.576,8,8,8s8-3.576,8-8v-56C344,251.576,340.424,248,336,248z"/>
	</g>
</g>
<g>
	<g>
		<path d="M360,272c-4.424,0-8,3.576-8,8v144c0,4.424,3.576,8,8,8s8-3.576,8-8V280C368,275.576,364.424,272,360,272z"/>
	</g>
</g>
<g>
	<g>
		<path d="M424,272c-4.424,0-8,3.576-8,8v144c0,4.424,3.576,8,8,8s8-3.576,8-8V280C432,275.576,428.424,272,424,272z"/>
	</g>
</g>
<g>
	<g>
		<path d="M392,344c-4.424,0-8,3.576-8,8v72c0,4.424,3.576,8,8,8s8-3.576,8-8v-72C400,347.576,396.424,344,392,344z"/>
	</g>
</g>
<g>
	<g>
		<path d="M360,328c-8.824,0-16-7.176-16-16c0-4.424-3.576-8-8-8s-8,3.576-8,8c0,17.648,14.352,32,32,32c4.424,0,8-3.576,8-8
			S364.424,328,360,328z"/>
	</g>
</g>
<g>
	<g>
		<path d="M448,304c-4.424,0-8,3.576-8,8c0,8.824-7.176,16-16,16c-4.424,0-8,3.576-8,8s3.576,8,8,8c17.648,0,32-14.352,32-32
			C456,307.576,452.424,304,448,304z"/>
	</g>
</g>
<g>
	<g>
		<path d="M424,416h-64c-4.424,0-8,3.576-8,8s3.576,8,8,8h64c4.424,0,8-3.576,8-8S428.424,416,424,416z"/>
	</g>
</g>
<g>
	<g>
		<path d="M312,456c-4.424,0-8,3.576-8,8v8c0,4.424,3.576,8,8,8s8-3.576,8-8v-8C320,459.576,316.424,456,312,456z"/>
	</g>
</g>
<g>
	<g>
		<path d="M344,456c-4.424,0-8,3.576-8,8v8c0,4.424,3.576,8,8,8s8-3.576,8-8v-8C352,459.576,348.424,456,344,456z"/>
	</g>
</g>
<g>
	<g>
		<path d="M376,456c-4.424,0-8,3.576-8,8v8c0,4.424,3.576,8,8,8s8-3.576,8-8v-8C384,459.576,380.424,456,376,456z"/>
	</g>
</g>
<g>
	<g>
		<path d="M408,456c-4.424,0-8,3.576-8,8v8c0,4.424,3.576,8,8,8s8-3.576,8-8v-8C416,459.576,412.424,456,408,456z"/>
	</g>
</g>
<g>
	<g>
		<path d="M440,456c-4.424,0-8,3.576-8,8v8c0,4.424,3.576,8,8,8s8-3.576,8-8v-8C448,459.576,444.424,456,440,456z"/>
	</g>
</g>
<g>
	<g>
		<path d="M472,456c-4.424,0-8,3.576-8,8v8c0,4.424,3.576,8,8,8s8-3.576,8-8v-8C480,459.576,476.424,456,472,456z"/>
	</g>
</g>
<g>
	<g>
		<path d="M120,64c-4.424,0-8,3.576-8,8v32c0,4.424,3.576,8,8,8s8-3.576,8-8V72C128,67.576,124.424,64,120,64z"/>
	</g>
</g>
<g>
	<g>
		<path d="M152,32c-22.056,0-40,17.944-40,40c0,4.424,3.576,8,8,8s8-3.576,8-8c0-13.232,10.768-24,24-24c4.424,0,8-3.576,8-8
			S156.424,32,152,32z"/>
	</g>
</g>
<g>
	<g>
		<path d="M392,64c-4.424,0-8,3.576-8,8v32c0,4.424,3.576,8,8,8s8-3.576,8-8V72C400,67.576,396.424,64,392,64z"/>
	</g>
</g>
<g>
	<g>
		<path d="M360,32c-4.424,0-8,3.576-8,8s3.576,8,8,8c13.232,0,24,10.768,24,24c0,4.424,3.576,8,8,8s8-3.576,8-8
			C400,49.944,382.056,32,360,32z"/>
	</g>
</g>
<g>
	<g>
		<path d="M208,8c-4.424,0-8,3.576-8,8s3.576,8,8,8c8.824,0,16,7.176,16,16c0,4.424,3.576,8,8,8s8-3.576,8-8
			C240,22.352,225.648,8,208,8z"/>
	</g>
</g>
<g>
	<g>
		<path d="M304,8c-17.648,0-32,14.352-32,32c0,4.424,3.576,8,8,8s8-3.576,8-8c0-8.824,7.176-16,16-16c4.424,0,8-3.576,8-8
			S308.424,8,304,8z"/>
	</g>
</g>
<g>
	<g>
		<path d="M280,32c-4.424,0-8,3.576-8,8c0,8.824-7.176,16-16,16c-4.424,0-8,3.576-8,8s3.576,8,8,8c17.648,0,32-14.352,32-32
			C288,35.576,284.424,32,280,32z"/>
	</g>
</g>
<g>
	<g>
		<path d="M256,56c-8.824,0-16-7.176-16-16c0-4.424-3.576-8-8-8s-8,3.576-8,8c0,17.648,14.352,32,32,32c4.424,0,8-3.576,8-8
			S260.424,56,256,56z"/>
	</g>
</g>
<g>
	<g>
		<path d="M232,32c-4.424,0-8,3.576-8,8c0,8.824-7.176,16-16,16c-4.424,0-8,3.576-8,8s3.576,8,8,8c17.648,0,32-14.352,32-32
			C240,35.576,236.424,32,232,32z"/>
	</g>
</g>
<g>
	<g>
		<path d="M304,56c-8.824,0-16-7.176-16-16c0-4.424-3.576-8-8-8s-8,3.576-8,8c0,17.648,14.352,32,32,32c4.424,0,8-3.576,8-8
			S308.424,56,304,56z"/>
	</g>
</g>
<g>
	<g>
		<path d="M256,8c-4.424,0-8,3.576-8,8s3.576,8,8,8c8.824,0,16,7.176,16,16c0,4.424,3.576,8,8,8s8-3.576,8-8
			C288,22.352,273.648,8,256,8z"/>
	</g>
</g>
<g>
	<g>
		<path d="M256,8c-17.648,0-32,14.352-32,32c0,4.424,3.576,8,8,8s8-3.576,8-8c0-8.824,7.176-16,16-16c4.424,0,8-3.576,8-8
			S260.424,8,256,8z"/>
	</g>
</g>
<g>
	<g>
		<path d="M192,32h-40c-4.424,0-8,3.576-8,8s3.576,8,8,8h40c4.424,0,8-3.576,8-8S196.424,32,192,32z"/>
	</g>
</g>
<g>
	<g>
		<path d="M360,32h-40c-4.424,0-8,3.576-8,8s3.576,8,8,8h40c4.424,0,8-3.576,8-8S364.424,32,360,32z"/>
	</g>
</g>
<g>
</g>
<g>
</g>
<g>
</g>
<g>
</g>
<g>
</g>
<g>
</g>
<g>
</g>
<g>
</g>
<g>
</g>
<g>
</g>
<g>
</g>
<g>
</g>
<g>
</g>
<g>
</g>
<g>
</g>
</svg>
