<svg id="Capa_1" enable-background="new 0 0 512 512" height="512" viewBox="0 0 512 512" width="512" xmlns="http://www.w3.org/2000/svg"><g><path d="m323.827 121.453c4.788-6.761 3.187-16.124-3.575-20.91-39.796-28.177-88.321-28.451-128.505 0-6.762 4.786-8.363 14.149-3.575 20.91 4.787 6.762 14.148 8.362 20.91 3.575 29.471-20.863 64.122-21.034 93.835 0 6.765 4.789 16.127 3.183 20.91-3.575z"/><path d="m170.025 77.29c52.906-37.454 118.819-37.613 171.949 0 2.632 1.864 5.658 2.759 8.655 2.759 14.558 0 20.606-18.803 8.68-27.245-63.237-44.769-143.148-44.935-206.619 0-6.762 4.786-8.363 14.148-3.576 20.91 4.786 6.764 14.15 8.362 20.911 3.576z"/><path d="m252.742 139.924c-6.832 1.477-11.839 7.418-11.852 14.628-.017 9.721 8.917 16.701 18.269 14.699 6.87-1.443 12.02-7.565 11.948-14.83-.097-9.754-9.071-16.55-18.365-14.497z"/><circle cx="256" cy="304.598" r="15"/><path d="m492.52 257.598h-10.52v-27.763h15c8.284 0 15-6.716 15-15s-6.716-15-15-15h-60c-8.284 0-15 6.716-15 15s6.716 15 15 15h15v27.763h-10.52c-10.74 0-19.48 8.74-19.48 19.48v44.757h-15.007l-34.493-31.017v-63.25c0-15.29-12.44-27.73-27.74-27.73h-177.52c-15.3 0-27.74 12.44-27.74 27.73v63.25l-34.493 31.017h-15.007v-44.757c0-10.74-8.74-19.48-19.48-19.48h-10.52v-27.763h15c8.284 0 15-6.716 15-15s-6.716-15-15-15h-60c-8.284 0-15 6.716-15 15s6.716 15 15 15h15v27.763h-10.52c-10.74 0-19.48 8.74-19.48 19.48v79.76c0 24.81 20.19 45 45 45s45-20.19 45-45v-5.003c21.083 0 25.258 1.128 30.79-3.847l18.71-16.825v21.545c0 9.02 3.51 17.51 9.88 23.9l7.089 7.109-53.653 41.223c-3.695 2.839-5.861 7.234-5.861 11.895v41c0 8.284 6.716 15 15 15s15-6.716 15-15v-33.608l50.863-39.08.001.001 8.04 8.06c6.31 6.33 15.05 9.96 23.98 9.96h92.32c8.93 0 17.67-3.63 23.98-9.96l8.04-8.06.001-.001 50.863 39.08v33.608c0 8.284 6.716 15 15 15s15-6.716 15-15v-41c0-4.66-2.166-9.056-5.861-11.895l-53.652-41.223 7.089-7.109c6.37-6.39 9.88-14.88 9.88-23.9v-21.545l18.71 16.825c2.754 2.477 6.326 3.847 10.03 3.847h20.761v5.003c0 24.81 20.19 45 45 45s45-20.19 45-45v-79.76c0-10.74-8.74-19.48-19.48-19.48zm-236.52 92c-24.81 0-45-20.18-45-45 0-24.81 20.19-45 45-45s45 20.19 45 45c0 24.82-20.19 45-45 45z"/></g></svg>