<?xml version="1.0" encoding="iso-8859-1"?>
<!-- Generator: Adobe Illustrator 21.0.0, SVG Export Plug-In . SVG Version: 6.00 Build 0)  -->
<svg xmlns="http://www.w3.org/2000/svg" xmlns:xlink="http://www.w3.org/1999/xlink" version="1.1" id="Capa_1" x="0px" y="0px" viewBox="0 0 512 512" style="enable-background:new 0 0 512 512;" xml:space="preserve" width="512" height="512">
<g>
	<path style="fill:rgb(0,0,0);" d="M59.059,435.06c-5.523,0-10,4.477-10,10V502c0,5.523,4.477,10,10,10s10-4.477,10-10v-56.94   C69.059,439.537,64.582,435.06,59.059,435.06z"/>
	<path style="fill:rgb(0,0,0);" d="M181.925,435.06c-5.523,0-10,4.477-10,10V502c0,5.523,4.477,10,10,10s10-4.477,10-10v-56.94   C191.925,439.537,187.448,435.06,181.925,435.06z"/>
	<path style="fill:rgb(0,0,0);" d="M439.775,375.104h-1.933c10.762-11.402,17.381-26.756,17.381-43.635   c0-31.686-23.282-58.03-53.635-62.843v-36.084c0-5.523-4.478-10-10-10H266V192.05h175.659h4.979   c24.332,0,44.128-19.796,44.128-44.128V44.128C490.767,19.796,470.971,0,446.639,0h-4.979H70.341H65.18   C40.948,0,21.234,19.714,21.234,43.946v104.158c0,24.232,19.714,43.946,43.946,43.946h5.161H246v30.493H120.412   c-5.523,0-10,4.477-10,10v36.084c-30.354,4.812-53.635,31.157-53.635,62.843c0,16.879,6.618,32.232,17.38,43.634h-1.933   c-39.103,0-70.915,31.812-70.915,70.914V502c0,5.523,4.477,10,10,10s10-4.477,10-10v-55.982c0-28.074,22.84-50.914,50.915-50.914   h48.168c0.006,0,0.013,0,0.019,0s0.013,0,0.019,0H168.6c28.074,0,50.914,22.84,50.914,50.914V502c0,5.523,4.477,10,10,10   s10-4.477,10-10v-55.982c0-39.102-31.812-70.914-70.914-70.914h-1.933c10.762-11.402,17.381-26.756,17.381-43.635   c0-31.686-23.281-58.03-53.635-62.843v-26.084h251.176v26.084c-30.353,4.813-53.635,31.157-53.635,62.843   c0,16.879,6.618,32.232,17.38,43.634H343.4c-39.103,0-70.914,31.812-70.914,70.914V502c0,5.523,4.478,10,10,10s10-4.477,10-10   v-55.982c0-28.074,22.84-50.914,50.914-50.914h48.168c0.007,0,0.013,0,0.019,0s0.013,0,0.019,0h48.168   c28.074,0,50.914,22.84,50.914,50.914V502c0,5.523,4.478,10,10,10s10-4.477,10-10v-55.982   C510.689,406.916,478.878,375.104,439.775,375.104z M470.767,44.128v103.794c0,11.583-8.204,21.287-19.107,23.603V20.525   C462.563,22.841,470.767,32.544,470.767,44.128z M41.234,148.104V43.946c0-11.547,8.214-21.211,19.107-23.455V86.88   c0,5.523,4.477,10,10,10s10-4.477,10-10V20h351.318v152.05H80.341v-9.61c0-5.523-4.477-10-10-10s-10,4.477-10,10v9.119   C49.448,169.315,41.234,159.65,41.234,148.104z M164.047,331.469c0,24.054-19.564,43.624-43.616,43.634h-0.038   c-24.052-0.01-43.616-19.581-43.616-43.635c0-24.061,19.574-43.635,43.635-43.635S164.047,307.409,164.047,331.469z    M347.953,331.469c0-24.061,19.574-43.635,43.635-43.635s43.635,19.575,43.635,43.635c0,24.054-19.564,43.624-43.615,43.634h-0.039   C367.517,375.093,347.953,355.523,347.953,331.469z"/>
	<path style="fill:rgb(0,0,0);" d="M330.234,435.06c-5.522,0-10,4.477-10,10V502c0,5.523,4.478,10,10,10s10-4.477,10-10v-56.94   C340.234,439.537,335.757,435.06,330.234,435.06z"/>
	<path style="fill:rgb(0,0,0);" d="M453.101,435.06c-5.522,0-10,4.477-10,10V502c0,5.523,4.478,10,10,10s10-4.477,10-10v-56.94   C463.101,439.537,458.623,435.06,453.101,435.06z"/>
	<path style="fill:rgb(0,0,0);" d="M102.199,144.197c0.006,5.52,4.481,9.99,10,9.99c0.003,0,0.007,0,0.01,0   c32.655-0.034,59.249-26.07,72.115-41.456c12.867,15.359,39.434,41.309,72.059,41.306c0.02,0,0.045,0,0.064,0   c32.573-0.034,58.887-25.921,71.677-41.345c12.786,15.394,39.075,41.199,71.622,41.196c0.02,0,0.045,0,0.064,0   c5.522-0.006,9.995-4.488,9.989-10.01c-0.006-5.52-4.481-9.99-10-9.99c-0.014,0-0.035,0-0.054,0   c-26.982,0-50.269-26.184-59.275-37.805c3.276-4.241,8.46-10.423,15.112-16.621c10.417-9.708,26.547-21.283,44.228-21.301   c5.522-0.006,9.995-4.487,9.989-10.01c-0.006-5.52-4.481-9.99-10-9.99c-0.003,0-0.007,0-0.011,0   c-32.574,0.034-58.888,25.922-71.677,41.346c-12.786-15.393-39.074-41.197-71.621-41.197c-0.02,0-0.045,0-0.064,0   c-32.653,0.034-59.246,26.067-72.116,41.457c-12.867-15.358-39.434-41.307-72.059-41.307c-0.019,0-0.045,0-0.064,0   c-5.522,0.006-9.995,4.488-9.989,10.011c0.006,5.519,4.481,9.989,10,9.989c0.021,0.001,0.038,0,0.055,0   c27.011,0,50.563,26.208,59.689,37.847c-10.976,14.118-34.665,37.855-59.754,37.881   C106.666,134.192,102.193,138.674,102.199,144.197z M256.448,58.308c0.015,0,0.029,0,0.044,0c26.981,0,50.268,26.184,59.274,37.806   c-3.276,4.241-8.46,10.423-15.111,16.621c-10.418,9.707-26.547,21.283-44.228,21.301c-0.015,0-0.029,0-0.044,0   c-26.97,0-50.491-26.127-59.648-37.793C205.902,84.545,229.452,58.336,256.448,58.308z"/>
	<path style="fill:rgb(0,0,0);" d="M271.064,118.583c5.522,0,10-4.477,10-10V82.881c0-5.523-4.478-10-10-10s-10,4.477-10,10v25.703   C261.064,114.106,265.542,118.583,271.064,118.583z"/>
	<path style="fill:rgb(0,0,0);" d="M238.221,118.618c5.523,0,10-4.477,10-10V82.915c0-5.523-4.477-10-10-10s-10,4.477-10,10v25.703   C228.221,114.141,232.698,118.618,238.221,118.618z"/>
	<path style="fill:rgb(0,0,0);" d="M138.564,108.732V83.029c0-5.523-4.477-10-10-10s-10,4.477-10,10v25.703c0,5.523,4.477,10,10,10   S138.564,114.255,138.564,108.732z"/>
	<path style="fill:rgb(0,0,0);" d="M370.191,82.767v25.703c0,5.523,4.478,10,10,10s10-4.477,10-10V82.767c0-5.523-4.478-10-10-10   S370.191,77.244,370.191,82.767z"/>
	<path style="fill:rgb(0,0,0);" d="M70.34,134.53c4.711,0,8.882-3.431,9.8-8.05c0.812-4.085-1.073-8.386-4.661-10.518   c-3.492-2.075-7.992-1.832-11.225,0.637c-3.352,2.56-4.749,7.152-3.376,11.142C62.255,131.744,66.09,134.53,70.34,134.53z"/>
</g>















</svg>