<?xml version="1.0"?>
<svg xmlns="http://www.w3.org/2000/svg" id="Outline" viewBox="0 0 512 512" width="512" height="512"><path d="M16,405.622a8,8,0,0,0,5.463,7.586c1.946.652,33.237,10.86,78.156,10.86a282.684,282.684,0,0,0,77.859-10.756c45.783-13.125,74.09-38.053,90.605-58.646a39.8,39.8,0,0,0,6.609,3.049c21.452,36.4,73.235,62.333,132.781,66.267.175.012.351.018.527.018h41.376A24,24,0,0,0,496,416V384a24,24,0,0,0-46.624-8h-41.09c-37.81-2.739-71.167-15.885-86.931-33.956a39.887,39.887,0,0,0,0-44.088c15.764-18.071,49.121-31.217,86.931-33.956h41.09A24,24,0,0,0,496,256V224a24,24,0,0,0-46.624-8H408c-.176,0-.352.006-.527.018-59.546,3.934-111.329,29.863-132.781,66.267a39.8,39.8,0,0,0-6.609,3.049c-16.515-20.593-44.822-45.521-90.605-58.646q-9.733-2.79-19.205-4.755A108.636,108.636,0,0,1,165.016,200H192a72.081,72.081,0,0,0,72-72V80a8,8,0,0,0-8-8H224a72.058,72.058,0,0,0-64,39.079A72.058,72.058,0,0,0,96,72H64a8,8,0,0,0-8,8v48a72.081,72.081,0,0,0,72,72h19.8a129.6,129.6,0,0,0-5.28,19.108c-66.8-10.023-118.533,6.84-121.054,7.684a8,8,0,0,0,0,15.173l123.176,41.2a170.371,170.371,0,0,0,16.368,40.722,8,8,0,0,0,13.986-7.77,161.526,161.526,0,0,1-11.935-26.792l85.009,28.432c-.042.744-.067,1.491-.067,2.245s.025,1.5.067,2.245l-226.6,75.79A8,8,0,0,0,16,405.622ZM464,384a8,8,0,0,1,16,0v32a8,8,0,0,1-16,0Zm0-160a8,8,0,0,1,16,0v32a8,8,0,0,1-16,0ZM168,144a56.063,56.063,0,0,1,56-56h24v40a56.063,56.063,0,0,1-56,56H177.394l36.68-42.793a8,8,0,0,0-12.148-10.414L168,170.374ZM53.556,235.828A282.374,282.374,0,0,1,140.338,235a145.113,145.113,0,0,0,.827,30.131ZM432,392h16v16H432Zm-24.566-.02c.188.013.377.02.566.02h8v16h-7.733c-48.611-3.269-91.148-21.914-113-48.674a39.775,39.775,0,0,0,14.76-5.963C329.007,374.4,365.428,389,407.434,391.98ZM432,232h16v16H432Zm-23.733,0H416v16h-8c-.189,0-.378.007-.566.02-42.006,2.983-78.427,17.578-97.4,38.617a39.775,39.775,0,0,0-14.76-5.963C317.119,253.914,359.656,235.269,408.267,232ZM288,296a24,24,0,1,1-24,24A24.028,24.028,0,0,1,288,296ZM152,170.374l-33.926-39.581a8,8,0,0,0-12.148,10.414L142.606,184H128a56.063,56.063,0,0,1-56-56V88H96a56.063,56.063,0,0,1,56,56Zm6.2,100.454a128.568,128.568,0,0,1-2.019-32.965c5.559,1.186,11.194,2.574,16.886,4.206,42.278,12.119,68.111,35.1,83,53.869a40.063,40.063,0,0,0-3.906,6.317Zm93.965,66.917a40.063,40.063,0,0,0,3.906,6.317c-14.893,18.772-40.726,41.75-83,53.869-48.126,13.8-92.438,10.677-119.452,6.221Z"/><circle cx="288" cy="320" r="8"/></svg>
