<svg height="512pt" viewBox="-29 0 511 512" width="512pt" xmlns="http://www.w3.org/2000/svg"><path d="m452.808594 284.921875-33.613282-50.417969c.867188-7.777344 1.304688-15.660156 1.304688-23.503906 0-116.347656-94.207031-211-210-211s-210 94.652344-210 211c0 42.265625 12.507812 83.019531 36.164062 117.855469 21.183594 31.1875 50.023438 55.898437 83.835938 71.933593v20.210938h60v54.132812l71.351562 36.867188h198.648438v-142.214844l-26.75-26.746094zm-193.664063 197.078125-48.644531-25.132812v-65.867188h-60v-30h57.296875l32.410156-162.058594-29.417969-5.882812-27.585937 137.941406h-62.703125v35.953125c-55.335938-31.863281-90-90.851563-90-155.953125 0-99.804688 80.746094-181 180-181s180 81.195312 180 181c0 13.808594-1.476562 23.238281-2.523438 30.757812l30.214844 45.320313-30.941406 61.882813 33.25 33.253906v38.785156h-75c-24.8125 0-45-20.1875-45-45v-36.214844l-34.394531-34.390625-21.210938 21.210938 25.605469 25.609375v23.785156c0 41.355469 33.644531 75 75 75h75v31zm0 0"/><path d="m359.816406 248.8125c5.734375-32.519531-8.683594-62.457031-33.898437-66.902344-24.84375-4.382812-48.894531 18.144532-54.734375 51.277344-2.597656 14.71875-1.117188 29.457031 4.164062 41.492188 19.097656 43.53125 74.535156 30.472656 84.46875-25.867188zm-59.089844-10.417969c3.179688-18.023437 13.949219-28 19.984376-26.9375 6.109374 1.078125 12.667968 14.535157 9.5625 32.148438-3.179688 18.035156-13.957032 27.992187-19.984376 26.941406-6.082031-1.074219-12.675781-14.484375-9.5625-32.152344zm0 0"/></svg>