<svg id="Layer_1" enable-background="new 0 0 64 64" height="512" viewBox="0 0 64 64" width="512" xmlns="http://www.w3.org/2000/svg"><path d="m7 31h2c0-12.7 10.3-23 23-23 4.8 0 9.5 1.5 13.4 4.3l1.2-1.6c-11.2-8.1-26.8-5.5-34.9 5.7-3.1 4.3-4.7 9.4-4.7 14.6z"/><path d="m59 40h-10v-18h-8v-8h-20v9.4l-8 4v12.6h-8c-1.7 0-3 1.3-3 3s1.3 3 3 3h3.7c5 12.9 19.4 19.3 32.3 14.3 6.6-2.5 11.8-7.7 14.3-14.3h3.7c1.7 0 3-1.3 3-3s-1.3-3-3-3zm-12-16v16h-6v-16zm-14-1v5h-4v-5zm-4-2v-5h4v5zm-6 9h4v5h-4zm6 0h4v5h-4zm6 0h4v5h-4zm4-2h-4v-5h4zm-12 0h-4v-5h4zm-4 9h4v3h-4zm6 0h4v3h-4zm6 0h4v3h-4zm4-16h-4v-5h4zm-12-5v5h-4v-5zm-6 9.6v14.4h-2v-7h-4v-4.4zm-6 9.4h2v5h-2zm-1.2 16h9.7c1.4 0 2.5 1.1 2.5 2.5s-1.1 2.5-2.5 2.5h-4.4c-2.1-1.4-3.9-3.1-5.3-5zm24.2 8.2c-1.6.4-3.3.7-5 .8v-1c0-1.1.9-2 2-2h1c1.1 0 2 .9 2 2zm8-7.2c-.6 0-1-.4-1-1s.4-1 1-1h5c-.5.7-1 1.4-1.5 2zm6.2-4h-6.2c-1.7 0-3 1.3-3 3s1.3 3 3 3h1.5c-2.2 2-4.7 3.5-7.5 4.6-.2-2-1.9-3.6-4-3.6h-1c-2.2 0-4 1.8-4 4v1c-2.9-.1-5.7-.8-8.3-2h.8c2.5 0 4.5-2 4.5-4.5s-2-4.5-4.5-4.5h-11.1c-.6-1-1.1-2-1.6-3h17.2v.5c0 3.6 2.9 6.5 6.5 6.5s6.5-2.9 6.5-6.5v-.5h12.2c-.3.7-.6 1.4-1 2zm-22.2-2h9v.5c0 2.5-2 4.5-4.5 4.5s-4.5-2-4.5-4.5zm29-2h-54c-.6 0-1-.4-1-1s.4-1 1-1h54c.6 0 1 .4 1 1s-.4 1-1 1z"/><path d="m60.3 14.6-2.3-1.2v-5.7c0-1.3-.5-2.6-1.5-3.5l-2.5-2.6-2.5 2.5c-1 1-1.5 2.2-1.5 3.6v5.7l-2.3 1.2c-1 .5-1.7 1.5-1.7 2.7v2.7h16v-2.8c0-1.1-.6-2.1-1.7-2.6zm-8.3.4h4v3h-4zm.9-9.5 1.1-1.1 1.1 1.1c.6.6.9 1.4.9 2.2v5.3h-4v-5.3c0-.8.3-1.6.9-2.2zm-4.9 11.7c0-.4.2-.7.6-.9l1.4-.7v2.4h-2zm12 .8h-2v-2.4l1.4.7c.3.2.6.5.6.9z"/><path d="m54 30.4.9-.9c1.3-1.3 2.1-3.1 2.1-5v-2.5h-6v2.5c0 1.9.7 3.6 2.1 5zm-1-6.4h2v.5c0 1.1-.3 2.1-1 3-.7-.9-1-1.9-1-3z"/><path d="m43 26h2v5h-2z"/><path d="m43 33h2v5h-2z"/><path d="m7 15v1h2v-1c0-2.8 2.2-5 5-5v-2c-2.8 0-5-2.2-5-5v-1h-2v1c0 2.8-2.2 5-5 5v2c2.8 0 5 2.2 5 5zm1-8.4c.6 1 1.4 1.8 2.4 2.4-1 .6-1.8 1.4-2.4 2.4-.6-1-1.4-1.8-2.4-2.4 1-.6 1.8-1.4 2.4-2.4z"/><path d="m60 32h-2v2h-2v2h2v2h2v-2h2v-2h-2z"/><path d="m7 34h2v3h-2z"/><path d="m2 20h2v2h-2z"/><path d="m15 4h2v2h-2z"/><path d="m24 3h2v2h-2z"/><path d="m51 36h2v2h-2z"/><path d="m60 27h2v2h-2z"/><path d="m45 5h2v2h-2z"/><path d="m31 10h2v2h-2z"/><path d="m15 19h2v2h-2z"/><path d="m36 2h2v2h-2z"/></svg>